<svg width="285" height="40" viewBox="0 0 285 40" fill="none" xmlns="http://www.w3.org/2000/svg">
<path d="M37.2217 22.9404C38.3625 22.626 39.5032 22.3117 40.6439 21.9973C40.709 21.3404 40.743 20.6741 40.743 20C40.743 19.3259 40.709 18.6596 40.6439 18.0027C39.5032 17.6883 38.3625 17.3739 37.2217 17.0596C36.7906 14.6272 35.8336 12.3769 34.4731 10.429C35.0577 9.39976 35.6423 8.37042 36.2267 7.3413C35.3814 6.30834 34.4346 5.36162 33.4017 4.51619C32.3725 5.10079 31.3432 5.68524 30.314 6.26984C28.366 4.90942 26.1158 3.9524 23.6833 3.5213C23.369 2.38052 23.0546 1.2398 22.7402 0.0990898C22.0833 0.0339528 21.4172 0 20.743 0C20.0688 0 19.4026 0.0339528 18.7457 0.0990898C18.4313 1.2398 18.1169 2.38052 17.8025 3.5213C15.3701 3.9524 13.1199 4.90942 11.1719 6.26984C10.1427 5.68524 9.11347 5.10079 8.08428 4.51619C7.05125 5.36162 6.10453 6.30834 5.2591 7.34137C5.8437 8.37049 6.42815 9.39976 7.01275 10.429C5.65233 12.3769 4.69531 14.6273 4.26421 17.0596C3.1235 17.3739 1.98279 17.6883 0.842073 18.0027C0.776936 18.6596 0.742981 19.3259 0.742981 20C0.742981 20.6741 0.776936 21.3404 0.842073 21.9973C1.98279 22.3117 3.1235 22.6261 4.26421 22.9404C4.69531 25.3729 5.65233 27.6232 7.01275 29.5711C6.42822 30.6002 5.8437 31.6296 5.2591 32.6588C6.1046 33.6917 7.05125 34.6384 8.08421 35.4838C9.11333 34.8992 10.1427 34.3149 11.1719 33.7303C13.1198 35.0906 15.3702 36.0477 17.8025 36.4788C18.1169 37.6195 18.4313 38.7602 18.7457 39.9008C19.4026 39.9661 20.0688 40 20.743 40C21.4173 40 22.0833 39.9661 22.7402 39.9008C23.0546 38.7602 23.369 37.6195 23.6833 36.4788C26.1158 36.0477 28.366 35.0906 30.314 33.7303C31.3433 34.3148 32.3725 34.8991 33.4017 35.4838C34.4347 34.6384 35.3814 33.6917 36.2268 32.6588C35.6423 31.6296 35.0577 30.6002 34.4731 29.5711C35.8336 27.623 36.7906 25.3727 37.2217 22.9404ZM33.9202 20.9605C33.286 25.3784 29.6719 23.1318 25.0718 20.4651C25.5946 18.0686 24.5456 15.5085 22.3078 14.2165C20.2954 13.0547 17.8759 13.2382 16.0895 14.4876L20.7429 17.1742V20L18.2957 21.4129L13.6422 18.7263C13.4534 20.8978 14.5043 23.0851 16.5166 24.2469C18.7544 25.539 21.4959 25.1674 23.3099 23.5163C27.924 26.1694 31.6798 28.1772 28.1534 30.9396C26.0401 32.374 23.4894 33.2124 20.7429 33.2124C13.4458 33.2124 7.53051 27.297 7.53051 20C7.53051 12.7031 13.4458 6.78767 20.7429 6.78767C28.0398 6.78767 33.9552 12.7031 33.9552 20C33.9553 20.3232 33.9432 20.6432 33.9202 20.9605Z" fill="white"/>
<path d="M52.513 29.5L57.665 8.822H64.539L69.663 29.5H65.211L61.095 11.468H61.123L56.965 29.5H52.513ZM56.209 24.712V21.324H66.009V24.712H56.209Z" fill="white"/>
<path d="M84.3135 14.632L79.8055 29.5H73.9535L69.3475 14.632H73.8275L77.2155 28.184H76.5435L79.8195 14.632H84.3135Z" fill="white"/>
<path d="M90.8246 29.808C89.742 29.808 88.776 29.6353 87.9266 29.29C87.0866 28.9447 86.4286 28.4453 85.9526 27.792C85.4766 27.1387 85.2386 26.3453 85.2386 25.412C85.2386 24.3573 85.528 23.4987 86.1066 22.836C86.6853 22.1733 87.4506 21.6693 88.4026 21.324C89.364 20.9693 90.4046 20.736 91.5246 20.624C93.158 20.4653 94.2826 20.3207 94.8986 20.19C95.524 20.0593 95.8366 19.8307 95.8366 19.504C95.8366 19.4947 95.8366 19.4853 95.8366 19.476C95.8366 18.9253 95.5706 18.4913 95.0386 18.174C94.516 17.8567 93.7833 17.698 92.8406 17.698C91.842 17.698 91.0766 17.88 90.5446 18.244C90.022 18.5987 89.7606 19.1447 89.7606 19.882H85.4906C85.4906 18.6873 85.8126 17.6793 86.4566 16.858C87.11 16.0367 87.992 15.416 89.1026 14.996C90.2133 14.5667 91.4686 14.352 92.8686 14.352C94.1753 14.352 95.384 14.5527 96.4946 14.954C97.6053 15.346 98.4966 15.9387 99.1686 16.732C99.85 17.5253 100.191 18.5333 100.191 19.756C100.191 19.952 100.191 20.148 100.191 20.344C100.191 20.5307 100.191 20.722 100.191 20.918V26.182C100.191 26.5647 100.2 26.9333 100.219 27.288C100.247 27.6333 100.303 27.9507 100.387 28.24C100.48 28.5667 100.597 28.8373 100.737 29.052C100.877 29.2667 100.993 29.416 101.087 29.5H96.8166C96.7513 29.4347 96.6486 29.2993 96.5086 29.094C96.378 28.8887 96.266 28.6507 96.1726 28.38C96.0606 28.0533 95.9766 27.7267 95.9206 27.4C95.874 27.064 95.8506 26.672 95.8506 26.224L96.7466 26.84C96.4853 27.456 96.0606 27.988 95.4726 28.436C94.894 28.8747 94.2033 29.2153 93.4006 29.458C92.6073 29.6913 91.7486 29.808 90.8246 29.808ZM91.9866 26.56C92.668 26.56 93.3026 26.4387 93.8906 26.196C94.488 25.944 94.9733 25.552 95.3466 25.02C95.72 24.488 95.9066 23.7927 95.9066 22.934V21.436L96.9846 22.486C96.3686 22.71 95.6546 22.8967 94.8426 23.046C94.04 23.186 93.2373 23.298 92.4346 23.382C91.4826 23.4753 90.7686 23.6387 90.2926 23.872C89.826 24.096 89.5926 24.4787 89.5926 25.02C89.5926 25.5333 89.7933 25.9207 90.1946 26.182C90.596 26.434 91.1933 26.56 91.9866 26.56Z" fill="white"/>
<path d="M109.583 29.836C108.341 29.836 107.198 29.542 106.153 28.954C105.107 28.3567 104.267 27.4747 103.633 26.308C102.998 25.1413 102.681 23.704 102.681 21.996C102.681 20.3627 103.003 18.9767 103.647 17.838C104.3 16.6993 105.149 15.836 106.195 15.248C107.249 14.6507 108.379 14.352 109.583 14.352C110.759 14.352 111.832 14.6507 112.803 15.248C113.783 15.8453 114.567 16.662 115.155 17.698C115.743 18.7247 116.037 19.91 116.037 21.254C116.037 21.3007 116.037 21.3473 116.037 21.394C116.037 21.4313 116.037 21.4733 116.037 21.52L114.161 21.548C114.161 21.52 114.161 21.492 114.161 21.464C114.161 21.4267 114.161 21.394 114.161 21.366C114.161 20.666 113.993 20.064 113.657 19.56C113.321 19.056 112.887 18.6687 112.355 18.398C111.823 18.118 111.267 17.978 110.689 17.978C109.727 17.978 108.897 18.3 108.197 18.944C107.497 19.5787 107.147 20.596 107.147 21.996C107.147 23.396 107.497 24.4273 108.197 25.09C108.906 25.7433 109.737 26.07 110.689 26.07C111.286 26.07 111.851 25.93 112.383 25.65C112.915 25.3607 113.344 24.9547 113.671 24.432C113.997 23.9093 114.161 23.2933 114.161 22.584L116.037 22.682C116.037 24.0167 115.747 25.2253 115.169 26.308C114.599 27.3813 113.825 28.24 112.845 28.884C111.874 29.5187 110.787 29.836 109.583 29.836ZM114.161 29.5V7.618H118.515V29.5H114.161Z" fill="white"/>
<path d="M126.864 29.808C125.781 29.808 124.815 29.6353 123.966 29.29C123.126 28.9447 122.468 28.4453 121.992 27.792C121.516 27.1387 121.278 26.3453 121.278 25.412C121.278 24.3573 121.567 23.4987 122.146 22.836C122.724 22.1733 123.49 21.6693 124.442 21.324C125.403 20.9693 126.444 20.736 127.564 20.624C129.197 20.4653 130.322 20.3207 130.938 20.19C131.563 20.0593 131.876 19.8307 131.876 19.504C131.876 19.4947 131.876 19.4853 131.876 19.476C131.876 18.9253 131.61 18.4913 131.078 18.174C130.555 17.8567 129.822 17.698 128.88 17.698C127.881 17.698 127.116 17.88 126.584 18.244C126.061 18.5987 125.8 19.1447 125.8 19.882H121.53C121.53 18.6873 121.852 17.6793 122.496 16.858C123.149 16.0367 124.031 15.416 125.142 14.996C126.252 14.5667 127.508 14.352 128.908 14.352C130.214 14.352 131.423 14.5527 132.534 14.954C133.644 15.346 134.536 15.9387 135.208 16.732C135.889 17.5253 136.23 18.5333 136.23 19.756C136.23 19.952 136.23 20.148 136.23 20.344C136.23 20.5307 136.23 20.722 136.23 20.918V26.182C136.23 26.5647 136.239 26.9333 136.258 27.288C136.286 27.6333 136.342 27.9507 136.426 28.24C136.519 28.5667 136.636 28.8373 136.776 29.052C136.916 29.2667 137.032 29.416 137.126 29.5H132.856C132.79 29.4347 132.688 29.2993 132.548 29.094C132.417 28.8887 132.305 28.6507 132.212 28.38C132.1 28.0533 132.016 27.7267 131.96 27.4C131.913 27.064 131.89 26.672 131.89 26.224L132.786 26.84C132.524 27.456 132.1 27.988 131.512 28.436C130.933 28.8747 130.242 29.2153 129.44 29.458C128.646 29.6913 127.788 29.808 126.864 29.808ZM128.026 26.56C128.707 26.56 129.342 26.4387 129.93 26.196C130.527 25.944 131.012 25.552 131.386 25.02C131.759 24.488 131.946 23.7927 131.946 22.934V21.436L133.024 22.486C132.408 22.71 131.694 22.8967 130.882 23.046C130.079 23.186 129.276 23.298 128.474 23.382C127.522 23.4753 126.808 23.6387 126.332 23.872C125.865 24.096 125.632 24.4787 125.632 25.02C125.632 25.5333 125.832 25.9207 126.234 26.182C126.635 26.434 127.232 26.56 128.026 26.56Z" fill="white"/>
<path d="M161.148 8.85H168.498V29.5H164.382V11.412L164.466 11.468L160.434 29.5H154.75L150.648 11.426L150.732 11.384V29.5H146.602V8.85H153.952L157.718 27.442H157.354L161.148 8.85Z" fill="white"/>
<path d="M173.748 23.368V20.498H183.604L183.184 21.226C183.184 21.1513 183.184 21.0813 183.184 21.016C183.184 20.9413 183.184 20.8713 183.184 20.806C183.184 20.274 183.058 19.7653 182.806 19.28C182.554 18.7853 182.162 18.384 181.63 18.076C181.107 17.7587 180.435 17.6 179.614 17.6C178.792 17.6 178.083 17.7773 177.486 18.132C176.898 18.4773 176.445 18.9767 176.128 19.63C175.82 20.2833 175.666 21.072 175.666 21.996C175.666 22.948 175.815 23.7647 176.114 24.446C176.422 25.118 176.874 25.636 177.472 26C178.078 26.364 178.83 26.546 179.726 26.546C180.304 26.546 180.804 26.4947 181.224 26.392C181.644 26.28 181.984 26.14 182.246 25.972C182.516 25.804 182.722 25.6173 182.862 25.412C183.002 25.2067 183.086 25.006 183.114 24.81H187.398C187.342 25.4353 187.127 26.0513 186.754 26.658C186.38 27.2553 185.862 27.7967 185.2 28.282C184.537 28.758 183.73 29.136 182.778 29.416C181.835 29.696 180.757 29.836 179.544 29.836C177.901 29.836 176.468 29.5093 175.246 28.856C174.023 28.1933 173.076 27.2833 172.404 26.126C171.732 24.9593 171.396 23.6153 171.396 22.094C171.396 20.554 171.736 19.2053 172.418 18.048C173.108 16.8813 174.065 15.976 175.288 15.332C176.52 14.6787 177.943 14.352 179.558 14.352C181.21 14.352 182.638 14.6833 183.842 15.346C185.046 15.9993 185.974 16.9187 186.628 18.104C187.281 19.28 187.608 20.652 187.608 22.22C187.608 22.4533 187.603 22.6773 187.594 22.892C187.584 23.1067 187.57 23.2653 187.552 23.368H173.748Z" fill="white"/>
<path d="M197.81 29.836C196.176 29.836 194.744 29.5093 193.512 28.856C192.28 28.1933 191.323 27.274 190.642 26.098C189.97 24.922 189.634 23.564 189.634 22.024C189.634 20.4653 189.97 19.1167 190.642 17.978C191.323 16.83 192.28 15.9387 193.512 15.304C194.744 14.6693 196.176 14.352 197.81 14.352C199.032 14.352 200.115 14.534 201.058 14.898C202 15.2527 202.789 15.724 203.424 16.312C204.058 16.9 204.539 17.544 204.866 18.244C205.192 18.944 205.356 19.6393 205.356 20.33C205.356 20.3393 205.356 20.358 205.356 20.386C205.356 20.4047 205.356 20.4233 205.356 20.442H201.058C201.058 20.386 201.053 20.3347 201.044 20.288C201.044 20.232 201.034 20.176 201.016 20.12C200.941 19.728 200.778 19.3593 200.526 19.014C200.274 18.6687 199.919 18.3887 199.462 18.174C199.014 17.95 198.454 17.838 197.782 17.838C197.063 17.838 196.419 17.9967 195.85 18.314C195.29 18.6313 194.846 19.1027 194.52 19.728C194.193 20.344 194.03 21.1093 194.03 22.024C194.03 22.92 194.193 23.6947 194.52 24.348C194.846 24.992 195.29 25.4867 195.85 25.832C196.419 26.1773 197.063 26.35 197.782 26.35C198.519 26.35 199.121 26.238 199.588 26.014C200.054 25.7807 200.404 25.4727 200.638 25.09C200.871 24.698 201.011 24.2687 201.058 23.802H205.356C205.356 24.4927 205.192 25.1973 204.866 25.916C204.548 26.6253 204.072 27.274 203.438 27.862C202.812 28.45 202.028 28.926 201.086 29.29C200.143 29.654 199.051 29.836 197.81 29.836Z" fill="white"/>
<path d="M218.538 29.5V24.208C218.538 24.0213 218.538 23.7647 218.538 23.438C218.538 23.1113 218.538 22.78 218.538 22.444C218.538 22.108 218.538 21.8373 218.538 21.632C218.538 20.4933 218.333 19.616 217.922 19C217.511 18.3747 216.76 18.062 215.668 18.062C214.959 18.062 214.361 18.2067 213.876 18.496C213.391 18.776 213.022 19.1727 212.77 19.686C212.527 20.1993 212.406 20.8013 212.406 21.492L211.146 20.624C211.146 19.3827 211.412 18.2953 211.944 17.362C212.476 16.4193 213.209 15.682 214.142 15.15C215.085 14.618 216.172 14.352 217.404 14.352C219.224 14.352 220.591 14.8887 221.506 15.962C222.421 17.026 222.878 18.51 222.878 20.414C222.878 20.8993 222.878 21.4827 222.878 22.164C222.878 22.8453 222.878 23.634 222.878 24.53V29.5H218.538ZM208.066 29.5V7.618H212.406V29.5H208.066Z" fill="white"/>
<path d="M231.153 29.808C230.07 29.808 229.104 29.6353 228.255 29.29C227.415 28.9447 226.757 28.4453 226.281 27.792C225.805 27.1387 225.567 26.3453 225.567 25.412C225.567 24.3573 225.856 23.4987 226.435 22.836C227.013 22.1733 227.779 21.6693 228.731 21.324C229.692 20.9693 230.733 20.736 231.853 20.624C233.486 20.4653 234.611 20.3207 235.227 20.19C235.852 20.0593 236.165 19.8307 236.165 19.504C236.165 19.4947 236.165 19.4853 236.165 19.476C236.165 18.9253 235.899 18.4913 235.367 18.174C234.844 17.8567 234.111 17.698 233.169 17.698C232.17 17.698 231.405 17.88 230.873 18.244C230.35 18.5987 230.089 19.1447 230.089 19.882H225.819C225.819 18.6873 226.141 17.6793 226.785 16.858C227.438 16.0367 228.32 15.416 229.431 14.996C230.541 14.5667 231.797 14.352 233.197 14.352C234.503 14.352 235.712 14.5527 236.823 14.954C237.933 15.346 238.825 15.9387 239.497 16.732C240.178 17.5253 240.519 18.5333 240.519 19.756C240.519 19.952 240.519 20.148 240.519 20.344C240.519 20.5307 240.519 20.722 240.519 20.918V26.182C240.519 26.5647 240.528 26.9333 240.547 27.288C240.575 27.6333 240.631 27.9507 240.715 28.24C240.808 28.5667 240.925 28.8373 241.065 29.052C241.205 29.2667 241.321 29.416 241.415 29.5H237.145C237.079 29.4347 236.977 29.2993 236.837 29.094C236.706 28.8887 236.594 28.6507 236.501 28.38C236.389 28.0533 236.305 27.7267 236.249 27.4C236.202 27.064 236.179 26.672 236.179 26.224L237.075 26.84C236.813 27.456 236.389 27.988 235.801 28.436C235.222 28.8747 234.531 29.2153 233.729 29.458C232.935 29.6913 232.077 29.808 231.153 29.808ZM232.315 26.56C232.996 26.56 233.631 26.4387 234.219 26.196C234.816 25.944 235.301 25.552 235.675 25.02C236.048 24.488 236.235 23.7927 236.235 22.934V21.436L237.313 22.486C236.697 22.71 235.983 22.8967 235.171 23.046C234.368 23.186 233.565 23.298 232.763 23.382C231.811 23.4753 231.097 23.6387 230.621 23.872C230.154 24.096 229.921 24.4787 229.921 25.02C229.921 25.5333 230.121 25.9207 230.523 26.182C230.924 26.434 231.521 26.56 232.315 26.56Z" fill="white"/>
<path d="M254.167 29.5V23.186C254.167 22.8313 254.167 22.5093 254.167 22.22C254.167 21.9307 254.167 21.6693 254.167 21.436C254.167 20.82 254.087 20.26 253.929 19.756C253.77 19.2427 253.485 18.832 253.075 18.524C252.664 18.216 252.071 18.062 251.297 18.062C250.625 18.062 250.041 18.216 249.547 18.524C249.061 18.832 248.688 19.2613 248.427 19.812C248.165 20.3627 248.035 20.9973 248.035 21.716L246.831 20.848C246.831 19.56 247.111 18.4307 247.671 17.46C248.231 16.4893 248.987 15.7287 249.939 15.178C250.9 14.6273 251.964 14.352 253.131 14.352C254.353 14.352 255.357 14.5993 256.141 15.094C256.934 15.5793 257.522 16.2607 257.905 17.138C258.297 18.006 258.493 19.0233 258.493 20.19C258.493 20.666 258.493 21.198 258.493 21.786C258.493 22.374 258.493 22.976 258.493 23.592V29.5H254.167ZM243.695 29.5V14.632H248.035V29.5H243.695Z" fill="white"/>
<path d="M261.574 29.5V14.632H265.872V29.5H261.574ZM263.716 12.21C263.044 12.21 262.456 12.0327 261.952 11.678C261.457 11.3233 261.21 10.824 261.21 10.18C261.21 9.52667 261.457 9.02267 261.952 8.668C262.456 8.31333 263.044 8.136 263.716 8.136C264.397 8.136 264.985 8.31333 265.48 8.668C265.984 9.02267 266.236 9.52667 266.236 10.18C266.236 10.8333 265.984 11.3373 265.48 11.692C264.985 12.0373 264.397 12.21 263.716 12.21Z" fill="white"/>
<path d="M276.56 29.836C274.926 29.836 273.494 29.5093 272.262 28.856C271.03 28.1933 270.073 27.274 269.392 26.098C268.72 24.922 268.384 23.564 268.384 22.024C268.384 20.4653 268.72 19.1167 269.392 17.978C270.073 16.83 271.03 15.9387 272.262 15.304C273.494 14.6693 274.926 14.352 276.56 14.352C277.782 14.352 278.865 14.534 279.808 14.898C280.75 15.2527 281.539 15.724 282.174 16.312C282.808 16.9 283.289 17.544 283.616 18.244C283.942 18.944 284.106 19.6393 284.106 20.33C284.106 20.3393 284.106 20.358 284.106 20.386C284.106 20.4047 284.106 20.4233 284.106 20.442H279.808C279.808 20.386 279.803 20.3347 279.794 20.288C279.794 20.232 279.784 20.176 279.766 20.12C279.691 19.728 279.528 19.3593 279.276 19.014C279.024 18.6687 278.669 18.3887 278.212 18.174C277.764 17.95 277.204 17.838 276.532 17.838C275.813 17.838 275.169 17.9967 274.6 18.314C274.04 18.6313 273.596 19.1027 273.27 19.728C272.943 20.344 272.78 21.1093 272.78 22.024C272.78 22.92 272.943 23.6947 273.27 24.348C273.596 24.992 274.04 25.4867 274.6 25.832C275.169 26.1773 275.813 26.35 276.532 26.35C277.269 26.35 277.871 26.238 278.338 26.014C278.804 25.7807 279.154 25.4727 279.388 25.09C279.621 24.698 279.761 24.2687 279.808 23.802H284.106C284.106 24.4927 283.942 25.1973 283.616 25.916C283.298 26.6253 282.822 27.274 282.188 27.862C281.562 28.45 280.778 28.926 279.836 29.29C278.893 29.654 277.801 29.836 276.56 29.836Z" fill="white"/>
</svg>
